<?xml version="1.0" encoding="UTF-8" standalone="no"?><!DOCTYPE svg PUBLIC "-//W3C//DTD SVG 1.1//EN" "http://www.w3.org/Graphics/SVG/1.1/DTD/svg11.dtd"><svg width="100%" height="100%" viewBox="0 0 200 200" version="1.1" xmlns="http://www.w3.org/2000/svg" xmlns:xlink="http://www.w3.org/1999/xlink" xml:space="preserve" style="fill-rule:evenodd;clip-rule:evenodd;stroke-linejoin:round;stroke-miterlimit:1.41421;"><path d="M95.039,25.637c-19.888,0.356 -38.82,8.598 -52.631,22.912c-28.742,29.789 -27.892,77.308 1.897,106.049c29.789,28.742 77.308,27.892 106.049,-1.897c28.761,-29.809 27.911,-77.289 -1.897,-106.049l-15.623,16.192c20.866,20.132 21.461,53.368 1.328,74.234c-20.119,20.852 -53.382,21.447 -74.234,1.328c-20.852,-20.119 -21.447,-53.382 -1.328,-74.234c9.668,-10.02 22.92,-15.789 36.842,-16.039l-0.403,-22.496Z"/><path d="M138.393,25.355l-50.542,49.183l-16.064,-72.357l66.606,23.174Z"/></svg>